<svg width="30" height="30" viewBox="0 0 30 30" fill="none" xmlns="http://www.w3.org/2000/svg">
<path fill-rule="evenodd" clip-rule="evenodd" d="M15.3835 24.2162C15.3835 23.5445 15.8509 23 16.4275 23H28.9559C29.5325 23 30 23.5445 30 24.2162C30 24.8879 29.5325 25.4324 28.9559 25.4324H16.4275C15.8509 25.4324 15.3835 24.8879 15.3835 24.2162Z" fill="#323232"/>
<path fill-rule="evenodd" clip-rule="evenodd" d="M9.02731 24.2162C9.02731 23.5445 8.56096 23 7.9857 23H1.04161C0.466351 23 0 23.5445 0 24.2162C0 24.8879 0.466351 25.4324 1.04161 25.4324H7.9857C8.56096 25.4324 9.02731 24.8879 9.02731 24.2162Z" fill="#323232"/>
<path fill-rule="evenodd" clip-rule="evenodd" d="M20.9017 6.21622C20.9017 5.54452 21.3681 5 21.9433 5H28.8874C29.4627 5 29.929 5.54452 29.929 6.21622C29.929 6.88791 29.4627 7.43243 28.8874 7.43243H21.9433C21.3681 7.43243 20.9017 6.88791 20.9017 6.21622Z" fill="#323232"/>
<path fill-rule="evenodd" clip-rule="evenodd" d="M0 6.21622C0 5.54452 0.466351 5 1.04161 5H13.541C14.1162 5 14.5826 5.54452 14.5826 6.21622C14.5826 6.88791 14.1162 7.43243 13.541 7.43243H1.04161C0.466351 7.43243 0 6.88791 0 6.21622Z" fill="#323232"/>
<path fill-rule="evenodd" clip-rule="evenodd" d="M6.96722 20.8C6.96722 19.2536 8.21496 18 9.75412 18H16.1242C17.6633 18 18.9111 19.2536 18.9111 20.8V27.2C18.9111 28.7464 17.6633 30 16.1242 30H9.75412C8.21496 30 6.96722 28.7464 6.96722 27.2V20.8Z" fill="#323232"/>
<path fill-rule="evenodd" clip-rule="evenodd" d="M22.8923 2.8C22.8923 1.2536 21.6446 0 20.1054 0H13.7354C12.1962 0 10.9485 1.2536 10.9485 2.8V9.2C10.9485 10.7464 12.1962 12 13.7354 12H20.1054C21.6446 12 22.8923 10.7464 22.8923 9.2V2.8Z" fill="#323232"/>
</svg>
